<?xml version="1.0" encoding="UTF-8"?>
<!DOCTYPE svg PUBLIC "-//W3C//DTD SVG 1.1//EN" "http://www.w3.org/Graphics/SVG/1.1/DTD/svg11.dtd">
<!-- Creator: CorelDRAW X7 -->
<svg xmlns="http://www.w3.org/2000/svg" xml:space="preserve" width="148mm" height="105mm" version="1.1" style="shape-rendering:geometricPrecision; text-rendering:geometricPrecision; image-rendering:optimizeQuality; fill-rule:evenodd; clip-rule:evenodd"
viewBox="0 0 14800 10500"
 xmlns:xlink="http://www.w3.org/1999/xlink"
 enable-background="new 0 0 300 256">
 <defs>
  <style type="text/css">
   <![CDATA[
    .fil3 {fill:none}
    .fil1 {fill:black}
    .fil0 {fill:white}
    .fil4 {fill:#2B2A29;fill-rule:nonzero}
    .fil2 {fill:red;fill-rule:nonzero}
   ]]>
  </style>
 </defs>
 <g id="Ebene_x0020_1">
  <metadata id="CorelCorpID_0Corel-Layer"/>
  <g id="_624139825376">
   <g>
    <path class="fil0" d="M8246 3937c-29,-13 -129,-37 -301,-71 0,2 -297,-56 -297,-56l-13 -2 -6 13c0,3 -10,37 -2,71 2,16 10,34 26,45 -16,-11 -37,-29 -42,-63 -3,-11 -3,-27 0,-40 29,-137 118,-268 279,-400 0,-3 113,-90 113,-90l53 -39c39,-32 61,-79 53,-116 -3,-8 -6,-16 -11,-24 -16,-29 -79,-81 -287,6 -32,15 -68,34 -105,52 -153,82 -250,140 -319,179 -105,61 -155,90 -253,127 -10,2 -18,5 -29,8 6,-6 8,-14 8,-19 0,-2 0,-2 0,-5 -2,-19 -29,-26 -50,-32 -45,-10 -97,3 -153,19l-52 13 0 0c-8,0 -13,-3 -19,-3 0,0 0,0 -2,0 8,-10 13,-18 13,-29 0,0 0,-2 0,-5 -5,-29 -58,-82 -90,-113l-666 -677 -3 0c-421,-255 -690,-237 -908,-224l-63 5 0 16c8,90 -6,174 -40,256 -74,181 -139,266 -187,305 53,-68 108,-166 163,-292 58,-132 64,-253 40,-369 -29,-142 -100,-268 -176,-384l-27 -37c-58,-87 -89,-158 -102,-235 -16,-81 -14,-168 -11,-273l3 -64c0,-26 -3,-50 -8,-73 -29,-148 -148,-261 -156,-266 -5,-8 -10,-14 -15,-21 26,18 60,47 92,84l10 13 11 -16c16,-18 52,-58 79,-76 31,-21 100,-29 171,-34l55 -6c90,-8 148,-58 171,-142 19,-63 -7,-97 -39,-108 -26,-8 -74,13 -140,53l-13 8c-8,5 -13,10 -13,18 0,3 0,5 0,8 3,8 8,16 18,26 -131,-55 -168,-126 -215,-216l-35 -63c-68,-116 -181,-108 -295,-81 -123,29 -345,187 -374,216 -13,13 -15,26 -13,34 0,0 0,2 0,2 6,19 24,29 34,35 -31,2 -65,8 -100,13 -71,13 -142,31 -208,58 -131,52 -202,116 -218,134 -77,76 -142,187 -200,337 -16,40 -32,84 -48,132 -76,245 -184,382 -339,563 -164,190 -230,401 -187,603 29,151 131,306 213,414 -3,2 -3,2 -3,5 -2,-3 -13,-16 -13,-16l-10 3c-53,21 -193,113 -269,255 -92,174 -169,266 -374,451 -87,76 -166,145 -232,197 -55,45 -97,79 -126,108l-19 16c0,0 53,18 82,29 -26,-3 -55,-5 -87,-11 -66,-15 -116,-36 -116,-36 0,0 -105,-45 -105,-45 -126,-56 -332,-145 -593,-269 -287,-137 -476,-110 -542,-74 -21,14 -34,27 -37,43 0,5 0,10 0,15 8,43 71,74 169,108 147,53 260,150 287,187 2,6 8,13 13,21 0,0 -3,-2 -3,-2l-5 -3 -8 -8c-10,-13 -26,-21 -42,-23 -45,-6 -92,34 -98,39 0,0 -100,74 -100,74l-39 31c-82,61 -155,114 -145,169 3,5 3,13 8,18 34,64 92,53 197,35l111 -19c145,-21 221,53 253,90 -5,-3 -11,-6 -16,-11 -34,-24 -63,-34 -89,-31 -16,2 -32,13 -43,28 -5,8 -5,19 -7,29 -3,22 -3,45 -35,61 -58,32 -110,121 -113,124 -21,42 -24,74 -5,95 34,39 124,26 171,10l71 -24c34,-10 63,-21 84,-26 27,-5 32,-18 32,-26 0,-3 0,-5 0,-8 -3,-13 -16,-29 -40,-40 16,6 40,14 61,24 195,132 321,158 374,169l18 5c29,8 40,-5 45,-11 5,-8 8,-18 5,-29 -2,-5 -5,-10 -8,-18 29,16 87,55 143,95 44,34 79,66 100,87 60,65 139,139 139,139 69,61 153,69 229,24 29,-16 35,-40 29,-69 -7,-36 -34,-84 -65,-139l-3 -5c-16,-27 -24,-48 -26,-66 -6,-21 -3,-40 2,-53 -2,8 -2,16 -2,24 0,2 2,5 2,8 3,8 11,18 32,16 47,-6 237,-77 387,-180l132 -92 18 -13c50,-37 95,-66 171,-111 56,-31 124,-55 208,-71 0,0 13,-2 29,-5 0,3 8,16 8,16 245,463 598,800 1046,1003 -3,3 -3,6 -6,8 -13,-5 -63,-29 -63,-29l-8 13c-47,85 -221,369 -463,509l-21 13 21 13c458,290 1006,392 1538,284 824,-163 1474,-803 1651,-1624l0 0 0 -6c8,-34 8,-55 5,-63 0,-3 0,-5 -3,-5 0,0 -2,-3 -2,-5 0,0 16,-3 16,-3l0 0c58,-13 102,-32 123,-42 0,0 0,0 0,0l3 0 3 -3 15 -8 -2 3 55 -26c142,-74 269,-19 348,42 108,79 326,189 337,195 29,10 52,18 76,21 48,8 79,0 100,-21 13,-14 27,-40 16,-87 -3,-14 -13,-37 -76,-98 -43,-42 -95,-84 -129,-113l-35 -29 -13 -13c-24,-24 -47,-48 -87,-50 69,-48 156,-63 274,-56 45,3 90,11 127,16l68 11c129,13 232,-29 248,-105 2,-14 2,-24 0,-37 5,-43 -43,-87 -129,-124l0 0zm-1320 511l0 0c0,0 0,0 0,0zm11 2c0,0 0,0 0,0 2,0 2,0 0,0l0 0z"/>
   </g>
   <path class="fil1" d="M7592 3829c-18,92 69,129 69,129 0,0 24,-11 3,-32 -56,-52 -22,-102 -22,-102 0,0 148,26 298,58 -8,-135 -26,-272 -53,-409 -2,-18 -7,-34 -10,-52 -119,97 -248,231 -285,408zm45 411c0,0 -21,13 27,8 44,-6 71,31 100,58 18,15 100,84 163,144 10,-94 18,-189 21,-287 -105,-8 -221,0 -311,77zm-2841 -3216c-29,21 -66,58 -82,79 -53,-60 -113,-100 -132,-113 -2,0 -5,0 -10,0 0,16 42,69 42,69 0,0 161,150 155,326 -5,242 -26,374 116,579 8,14 16,24 27,37 903,21 1706,627 1962,1515 68,-16 131,-40 184,-27 53,11 71,32 -69,69 0,0 69,5 151,-24 165,-61 194,-100 574,-303 39,-21 73,-37 105,-53 -382,-1256 -1517,-2125 -2797,-2196 -95,11 -184,13 -226,42zm-2821 3071l0 0c0,2 3,2 0,0 -68,-16 -121,-37 -121,-37 0,0 -37,-16 -105,-45 21,-1127 664,-2154 1654,-2675 -16,39 -29,81 -45,129 -79,253 -195,397 -342,569 -148,171 -227,373 -185,589 32,148 129,301 216,414 -5,10 -13,21 -18,31 -8,-7 -13,-15 -21,-23 -42,16 -185,102 -261,247 -90,171 -166,266 -377,456 -158,142 -295,245 -358,305 71,27 111,40 111,40 29,8 -11,10 -11,10 -44,6 -94,0 -137,-10zm5852 513c0,0 -227,-113 -335,-192 -108,-79 -234,-110 -363,-42 -24,13 -47,24 -74,34l-137 53 -8 63c-55,266 -160,519 -310,740 -298,445 -767,780 -1335,893 -548,110 -1091,-5 -1528,-282 -469,-295 -819,-772 -937,-1356 -40,29 -85,60 -150,105 -156,103 -340,174 -380,177 -39,2 -8,-58 8,-77 0,0 11,-60 -23,-18 -32,42 -64,92 -8,192 58,100 94,166 47,195 -79,47 -155,26 -211,-24 0,0 -79,-71 -139,-139 -24,-24 -61,-58 -100,-90 403,1588 1983,2599 3608,2275 1285,-255 2225,-1272 2443,-2486 -18,-2 -42,-10 -68,-21z"/>
   <path class="fil1" d="M8414 4011c-71,-85 -116,-98 -266,-137l-18 -6c-37,-10 -129,-26 -224,-44 -100,-19 -224,-40 -248,-50 16,-32 103,-206 266,-322 161,-113 229,-187 237,-250 3,-10 0,-21 -2,-31 -3,-16 -14,-35 -27,-50 -23,-29 -92,-111 -476,92 -82,42 -166,89 -240,134 -108,61 -200,116 -253,134 -16,-13 -87,-55 -232,-18 0,0 -42,10 -50,13 -10,-21 -52,-105 -76,-129l-5 -5 -66 31 8 8c39,40 84,90 84,103 0,5 -3,10 -10,18 -14,11 -37,19 -53,16 -5,0 -19,-2 -24,8l-2 3 2 5c11,16 61,8 82,5 31,-5 63,-13 92,-21 53,-13 103,-26 142,-18 29,5 32,13 32,13 0,0 -3,16 -103,42l3 16c2,0 71,5 153,-24 100,-37 147,-66 255,-126 71,-40 166,-95 319,-179 221,-119 331,-114 363,-69 18,32 5,82 -37,113l-53 40c-123,92 -352,261 -402,503 -19,97 71,137 71,137l2 0 3 0c3,0 13,-5 16,-19 0,-2 0,-5 0,-10 -3,-5 -6,-13 -11,-19 -13,-15 -21,-31 -24,-44 -2,-19 0,-32 3,-37 55,10 524,92 587,121 79,34 124,71 132,111 3,10 3,18 0,28 -13,64 -105,101 -221,90l-69 -11c-123,-21 -313,-52 -445,58 -5,6 -8,11 -8,16 3,8 14,11 37,8 35,-3 56,19 79,42l13 13 35 29c58,48 192,164 200,201 5,23 -3,44 -19,57 -29,24 -84,24 -142,-2 -2,0 -226,-113 -332,-190 -123,-92 -250,-105 -371,-45 -129,69 -292,116 -363,53 0,0 0,0 -3,-3 11,-10 40,-31 103,-39 29,-3 45,-8 50,-18 2,-6 2,-11 -3,-16 -10,-11 -37,-16 -58,-11l-13 5c-45,14 -126,40 -279,119 -184,97 -303,121 -361,74 -63,-53 -71,-129 76,-343 122,-173 103,-210 66,-242l-10 -10c-13,-14 -21,-21 -29,-16 -5,2 -5,10 -5,18 0,3 2,5 2,8l3 8c2,18 5,66 -13,92 -29,-16 -145,-79 -251,-229 -47,-68 -65,-79 -79,-71 -10,5 -10,26 -5,53 3,18 11,36 16,55l0 3 0 2c8,8 166,198 292,248 -21,31 -97,139 -150,239 -23,45 -29,93 -21,132 3,18 11,37 21,53 34,52 98,81 182,79 118,-3 229,-66 303,-108 37,-21 71,-40 81,-37 11,3 19,8 32,16 32,18 76,44 171,34 119,-16 179,-42 261,-79l24 -11c110,-47 144,-50 318,50 8,6 214,161 356,198 76,21 155,5 192,-42 16,-21 24,-48 16,-74 -3,-13 -8,-29 -16,-42 -18,-34 -71,-82 -126,-132 -56,-52 -114,-105 -137,-145 26,-10 131,-42 345,3 160,34 263,-29 300,-92 18,-29 23,-61 18,-90 6,-15 -2,-31 -13,-44z"/>
   <path class="fil1" d="M4051 2660c7,97 -32,181 -90,187 -58,5 -113,-71 -121,-169 -8,-97 31,-182 89,-187 58,-3 114,71 122,169z"/>
   <path class="fil1" d="M4058 2093c0,0 14,-28 24,3 21,55 -89,219 -213,40 -27,-37 24,2 58,15 23,11 102,14 131,-58z"/>
   <path class="fil1" d="M4098 3063c0,0 10,-43 24,-11 21,55 -100,229 -272,55 -31,-31 24,3 58,19 24,8 161,8 190,-63z"/>
   <path class="fil1" d="M4338 1569c13,0 -24,-147 -103,-102 -79,44 -63,158 -58,184 5,29 29,37 47,40 19,2 71,5 66,-35 -5,-39 -8,-92 5,-97 14,-5 29,10 43,10z"/>
   <path class="fil1" d="M3853 1522c13,8 -11,-113 -95,-87 -81,24 -81,124 -71,161 19,58 40,84 79,81 48,-2 61,-26 58,-71 -5,-42 -55,-92 -34,-100 21,-10 50,8 63,16z"/>
   <path class="fil1" d="M3792 1182c0,0 27,-42 -47,6 -71,47 -113,142 -103,158 11,15 48,13 53,-11 5,-24 11,-61 29,-84 24,-29 68,-69 68,-69z"/>
   <path class="fil1" d="M4372 1303c0,0 60,64 8,-31 -53,-98 -116,-132 -145,-108 -32,24 5,42 29,47 21,8 68,48 108,92z"/>
   <path class="fil1" d="M2370 5082c6,-15 6,-34 0,-52 -5,-19 -13,-40 -23,-58 -37,-58 -56,-103 -61,-121 48,-11 279,-71 487,-245 158,-135 311,-198 411,-227 61,119 358,661 977,969 -134,287 -411,453 -479,493 21,13 39,26 60,39 3,3 6,3 8,6 240,-140 414,-417 466,-511 253,116 527,181 817,189 76,-2 76,-8 76,-16 0,0 0,-2 0,-2 -2,-8 -13,-11 -79,-19 -13,0 -1153,-7 -1775,-1166 32,-8 63,-11 90,-13l2 0 0 0c32,-16 29,-24 29,-27 -2,-10 -15,-10 -31,-10 -19,0 -56,2 -100,8l-56 8c-84,15 -158,42 -213,73 -84,50 -129,82 -190,124l-131 92c-150,103 -335,171 -377,177 -5,0 -8,0 -10,-3 -6,-10 10,-45 23,-61l3 -2 0 -3c3,-16 5,-37 -8,-42 -10,-5 -21,5 -29,19 -37,50 -66,100 -8,200l3 5c58,103 87,155 47,179 -92,55 -166,11 -202,-21 0,0 -79,-71 -137,-137 -61,-68 -232,-187 -269,-198 -18,-5 -26,-7 -32,-2 -5,5 0,10 11,24l8 10c10,13 13,26 10,32 -2,2 -10,5 -21,0l-21 -6c-52,-10 -174,-36 -366,-165 -26,-14 -89,-40 -105,-27 -8,8 -13,11 -13,19 0,8 8,10 34,23 21,11 32,21 32,27 0,2 -6,5 -14,8 -23,5 -52,13 -87,26l-71 24c-44,13 -123,23 -147,-6 -11,-13 -11,-37 8,-68 0,-3 50,-87 102,-116 43,-21 45,-58 45,-82 0,-8 0,-15 3,-18 5,-8 13,-16 26,-19 19,-2 42,6 71,27 50,37 64,39 71,34 8,-5 3,-18 -5,-32 -8,-15 -92,-152 -290,-123l-110 18c-103,19 -148,26 -174,-21 -24,-42 47,-97 132,-158l39 -29 100 -76c0,0 45,-37 79,-35 11,0 19,6 27,14l13 10 2 3c32,39 74,79 74,79l3 2 18 -2 -5 -8c-3,-3 -37,-76 -66,-119 -29,-42 -145,-142 -297,-197 -82,-29 -158,-63 -156,-100 0,-8 11,-19 27,-27 63,-34 242,-57 521,74 413,195 695,311 698,314 2,0 52,23 118,39 53,11 98,16 140,13 26,-2 29,-8 29,-13 0,-10 -11,-13 -16,-13 0,0 -71,-24 -97,-34 29,-27 65,-58 115,-98 66,-52 148,-118 232,-197 208,-187 285,-279 379,-456 77,-145 214,-226 253,-242 79,89 150,147 150,147 35,27 48,19 53,16l5 -5 -5 -5c-3,-3 -313,-308 -369,-588 -39,-197 24,-397 182,-584 153,-179 266,-324 345,-572 66,-210 147,-366 240,-458 18,-18 84,-79 210,-129 64,-26 135,-47 203,-58 76,-13 140,-18 213,-13 8,0 19,0 21,-8 0,-3 3,-10 -23,-21l-3 0 -100 -11c-8,-2 -24,-10 -26,-18 -3,-5 0,-8 5,-13 29,-26 248,-182 363,-211 98,-23 206,-37 269,71l34 64c53,100 98,184 274,244l3 0 2 0c6,0 19,-2 21,-13 0,-2 0,-5 0,-5 -2,-8 -7,-13 -10,-13 -34,-24 -45,-37 -45,-40 0,0 0,0 0,0l16 -8c29,-15 100,-57 121,-50 26,11 37,37 24,79 -21,77 -71,119 -153,127l-55 5c-79,8 -148,13 -182,37 -29,18 -61,53 -79,74 -63,-69 -132,-111 -134,-114l-3 -2 -3 0c-5,2 -7,2 -10,8 -5,16 26,55 42,79 3,2 158,150 155,324l-2 63c-8,205 -11,332 118,521 145,214 290,466 158,767 -55,126 -110,223 -163,292 -18,24 -37,42 -55,58 -11,10 -13,18 -8,23 5,8 16,3 34,-10l8 -5c39,-24 134,-77 248,-353 34,-84 47,-166 42,-258 10,0 42,-3 42,-3 213,-13 479,-31 893,219l2 2 53 -23 -8 -8c-3,-3 -321,-308 -977,-248 -3,0 -5,0 -8,-2 -3,-14 -3,-24 -5,-37 -32,-156 -116,-298 -214,-456 -57,-92 -86,-163 -100,-229 -13,-68 -10,-129 -5,-205 3,-43 5,-90 5,-145 0,-24 -2,-48 -8,-69 -7,-42 -23,-81 -47,-121 5,-24 24,-60 42,-74 45,-29 111,-50 174,-52 63,-3 169,-32 203,-74l5 -8c32,-39 74,-89 50,-168 -10,-40 -39,-85 -105,-72 -19,3 -90,37 -119,53 -21,13 -31,24 -37,29 -15,-8 -76,-47 -121,-134 -2,-5 -58,-108 -92,-153 -58,-76 -142,-95 -279,-58 -97,26 -198,77 -321,166l-66 45c-21,16 -21,16 -29,24l-5 5c-24,26 -35,47 -32,66 0,0 0,2 0,2 0,3 3,6 3,8 -269,24 -419,137 -488,203 -94,95 -179,255 -247,471 -82,258 -200,401 -340,561 -145,171 -234,345 -187,635 0,5 3,13 3,18 21,111 84,229 187,356 -50,24 -171,100 -250,234l-3 3c-100,168 -161,271 -371,461 -92,84 -179,155 -248,210 -63,53 -108,90 -129,114 -174,-64 -442,-172 -740,-319 -442,-219 -642,-116 -687,-32 -8,16 -11,32 -8,48 0,2 3,8 3,10 13,34 58,63 139,95 84,32 195,79 263,137 -31,21 -136,95 -208,155 -71,61 -163,143 -150,208 3,8 6,16 8,21 32,51 79,53 108,53l3 0c10,0 39,-5 76,-10 58,-11 137,-27 182,-21 0,0 39,5 58,7 -11,14 -24,37 -24,72 0,18 -16,31 -39,50 -24,18 -56,42 -79,86 -35,61 -56,101 -48,135 3,13 8,26 21,37 37,39 90,50 161,31l205 -60 35 -16c23,-13 42,-21 65,-8 37,26 106,63 206,103 116,47 189,60 229,42 0,0 13,-5 18,-8 19,10 64,39 79,58l32 34c37,40 87,95 111,116 34,29 118,89 168,105 63,19 145,-2 182,-23 13,-21 26,-40 31,-64z"/>
   <path class="fil2" d="M2021 4493c32,54 54,99 68,137 29,81 28,169 -2,266 -39,125 -118,222 -238,292 -142,84 -294,86 -458,9l90 -358c60,79 123,100 188,62 66,-39 69,-109 8,-210l-44 -72 -490 -834 344 -202 534 910z"/>
   <path id="1" class="fil2" d="M3939 3838c15,90 21,169 17,235 -5,104 -44,203 -116,300 -102,136 -255,222 -459,258 -208,35 -380,5 -517,-93 -73,-51 -128,-121 -167,-211 -28,-63 -51,-151 -71,-262l-150 -868 392 -67 141 814c11,65 21,114 28,146 25,101 84,164 177,189 38,11 79,13 121,6 95,-17 161,-63 198,-138 28,-55 29,-154 5,-295l-141 -814 391 -68 151 868z"/>
   <polygon id="2" class="fil2" points="6080,4620 5683,4587 5037,3594 4959,4526 4563,4493 4690,2971 5086,3005 5733,3996 5811,3065 6207,3098 "/>
   <polygon id="3" class="fil2" points="7993,4907 7486,4829 7076,4094 6975,4750 6582,4689 6816,3178 7208,3238 7112,3861 7687,3312 8171,3387 7460,4010 "/>
   <path class="fil3" d="M1257 5050c1812,-1296 3796,-1049 7276,-450"/>
  </g>
  <circle class="fil3" cx="4764" cy="3898" r="5000"/>
  <path class="fil4" d="M4521 8052c-8,65 -34,115 -75,150 -61,52 -145,71 -254,56l-358 -48 116 -863 332 45c162,21 233,107 213,257 -6,46 -20,82 -42,110 -18,24 -43,43 -76,57 66,23 109,57 128,101 18,41 23,86 16,135zm-238 -401c5,-39 -9,-67 -42,-85 -12,-5 -29,-10 -50,-13l-40 -5 -23 169 41 6c38,5 67,-1 86,-17 16,-14 25,-32 28,-55zm17 357c6,-50 -15,-83 -66,-99 -16,-4 -43,-9 -83,-15l-46 -6 -24 181 49 7c57,8 98,6 122,-4 28,-12 43,-33 48,-64zm1202 -125c4,52 3,97 -2,134 -9,58 -37,113 -83,164 -65,72 -156,112 -274,121 -120,9 -216,-18 -288,-80 -39,-33 -66,-76 -84,-129 -12,-37 -20,-88 -25,-153l-38 -500 225 -17 36 469c3,37 5,65 8,84 9,58 39,97 90,117 21,8 44,11 69,9 55,-4 95,-26 120,-67 18,-30 25,-85 18,-167l-35 -469 225 -17 38 501zm825 -170c46,141 14,252 -95,334 -38,29 -81,51 -131,67 -103,34 -209,33 -318,0l36 -203c84,37 156,46 218,26 28,-9 50,-23 65,-42 17,-22 22,-47 13,-74 -8,-25 -27,-41 -57,-49 -23,-6 -58,-9 -106,-7 -59,1 -96,1 -111,0 -25,-3 -48,-8 -67,-15 -56,-22 -96,-70 -119,-144 -25,-76 -23,-147 6,-213 34,-76 96,-129 185,-158 89,-29 183,-35 284,-18l-32 196c-59,-22 -112,-26 -160,-10 -23,7 -42,20 -56,38 -16,20 -21,41 -13,63 7,22 26,37 59,44 14,3 54,4 121,3 83,-3 147,11 193,42 39,26 68,66 85,120zm459 -690l-164 92 336 594 -196 112 -336 -594 -161 90 -92 -163 520 -295 93 164zm921 155l-389 305 -537 -685 389 -305 116 148 -211 166 92 118 201 -157 116 148 -201 157 97 123 211 -166 116 148zm671 -746l-182 214 -393 -51 254 215 -146 172 -664 -563 228 -268c66,-79 139,-117 218,-114 64,2 121,24 173,68 58,50 91,107 96,172 3,41 -7,85 -32,132l448 23zm-655 -140c-24,-20 -51,-28 -82,-25 -29,3 -59,23 -89,59l-27 32 166 141 27 -32c31,-36 46,-69 44,-98 -2,-31 -15,-57 -39,-77zm805 -726c130,68 186,170 166,305 -7,47 -22,93 -46,139 -50,97 -126,171 -227,223l-117 -170c86,-31 144,-76 174,-134 14,-26 19,-51 16,-75 -3,-28 -17,-49 -42,-62 -23,-12 -48,-11 -75,5 -21,11 -48,34 -81,69 -40,42 -67,68 -79,78 -19,16 -39,28 -58,36 -55,24 -117,18 -186,-18 -71,-37 -119,-89 -144,-156 -30,-79 -23,-160 20,-242 43,-84 106,-154 190,-212l114 161c-57,26 -97,60 -121,105 -11,21 -15,44 -13,66 3,26 14,44 35,55 21,11 45,8 73,-10 13,-8 42,-35 88,-83 58,-60 113,-96 167,-106 46,-9 95,0 146,26z"/>
 </g>
</svg>
